<svg height="48.576" viewBox="0 0 68 48.57621" width="68" xmlns="http://www.w3.org/2000/svg"><g stroke="#000"><path d="m30.962 48.512c-2.349-1.176-1.752-4.604-3.782-6.048-1.124.611-3.755 4.761-3.79 1.383.264-2.021 2.33-4.348 1.36-6.234-1.04 1.506-2.02 3.373-3.236 4.89-1.168 1.91-2.81 4.199-4.928 4.827-1.829-1.377 2.823-4.657.753-4.57-2.076.781-3.554 2.523-5.455 3.555-2.984 1.385-1.547-2.029.065-2.622 2.012-1.563 4.458-2.624 6.03-4.7-2.24.412-4.859 1.872-7.012 3.09-1.088 1.344-6.03 1.985-3.494-.615 2.26-1.802 5.26-2.557 7.457-4.344-2.093-1.078-4.82-1.354-7.136-2.21-2.86-1.237-6.598-2.185-7.703-5.484-.385-2.928 3.305-3.17 5.388-3.455 3.436.039 7.028-.211 10.331 1.06 1.872-.613 2.337-3.796 3.871-5.303 1.514-2.494 2.34-5.502 1.473-8.373-1.963-2.218.377-4.27.711-6.213-1.282-2.898 1.81-5.77 4.65-5.511 2.39-.463 3.918 1.623 5.85 2.277 1.246-.443.816-2.35 2.01-3.04 2.985-1.836 8.245-.481 8.579 3.426.193 3.008 4.305 2.607 5.691 3.804.428 2.848.492 6.506-2.149 8.327-3.66.688-.43 3.754 1.461 4.543 1.778 1.65 3.786 3.424 6.17 1.711 2.412-.467 5.117-.465 7.395.49 4.154.57 1.797 5.05-.447 6.509-2.396 2.386-5.88 3.125-8.548 5.103-.321 2.38 4.356 2.208 6.154 2.115 2.42-.22 4.803.561 7.215.61 3.792.174 1.62 3.452-1.01 2.793-1.312-.335-3 .355-.718.966 2.14-.012 3.931 3.243.661 2.643-2.125-.153-4.454-2.062-6.318-1.568 1.306 1.427 2.625 6.004-.745 3.55-2.181-1.958-4.573-3.672-6.797-5.584-.824-.773-3.752-1.757-1.679.007.94.768 4.679 4.325 1.451 3.838-1.733-.788-3.011-2.885-5.015-2.914-2.312 1.275-.805 4.858-3.13 5.961-2.338-1.122-.198-4.477-1.248-6.135-1.045 1.233-3.869 4.897-4.847 2.07-.642-1.697 4.005-4.515 1.651-4.966-1.479 1.161-5.452-.668-5.597.941 1.177.75 4.52 4.286 1.235 3.834-1.088-.862-4.997-3.456-3.48-.362.56 1.778 2.888 5.019.652 5.929zm26.69-4.6c.06-2.001-2.963-2.527-2.565-4.475-2.504.05.312-2.041-2.035-2.155-2.148-.713-4.474-1.82-1.31-3.227 3.23-2.336 7.561-3.157 9.974-6.553 2.957-2.611-1.399-4.254-3.733-4.137-2.234-.17-4.58.124-6.353 1.604-1.875-.745-3.359-2.863-5.348-3.834-1.874-1.242-2.996-4.234-5.608-2.604-2.768.63-5.674.656-8.439.126-.761-1.821 3.181-.1 4.407-.585 2.98.1 5.8-.986 8.513-2.12 1.623-.398 2.301-3.016.06-1.348-2.313 1.169-5.008 1.149-7.488 1.792-3.964.475-8.259.443-11.71-1.863-1.684-.299-3.717-3.637-1.164-3.547-.332 2.748 3.217 3.594 5.201 4.55 4.746.817 9.635-.084 14.195-1.451 2.344-.4 5.061-4.653 2.204-5.768-2.2-.425-3.864-2.846-6.171-1.626-2.676.333-4.898-2.278-4.116-4.857-2.277-1.55-1.22 4.102-3.826 2.975-1.432.969-1.574 4.044-4.266 3.303-2.536.643-4.121-1.553-5.14-3.21-.777 1.641 1.825 3.412-.847 4.581-1.704 2.323 1.691 4.764.662 7.451-.61 3.337-2.574 6.213-4.446 8.965-.07 2.455-2.11 3.285-3.848 1.72-2.6-.86-5.415-1.008-8.131-.958-2.01.112-6.498.774-4.6 3.675 1.85 2.044 4.606 3.008 7.149 3.896 3.197.844 6.413 2.074 9.736 2.004 1.158.816 1.544 2.28 3.046 1.61.743 1.959-2.993 4.41-2.207 5.883.817-2.314 4.514-4.252 3.268-6.874-1.953-3.082-5.362-4.924-8.732-6.027-2.856-.475.592-1.964 1.628-.436 1.241.847 2.605.988 1.934-.938 1.133-1.85 2.723-4.04 4.288-5.233.766 2.446-4.681 4.125-2.631 6.64 1.895 1.91 4.115 3.486 6.028 5.379 2.969.767-1.299 5.769.775 5.528 1.144-1.614 2.869.645 3.142-1.797.853-.654 3.142.288 1.42-1.318-2.288-2.895-4.835-5.563-7.255-8.339-1.42-1.642-.367-3.873.11-5.655 2.125-.05-.825 3.465.47 4.755 1.551 2.29 3.78 4.043 5.38 6.317 1.638 2.438 5.127 1.566 7.66 1.702 2.803-.52 4.83-2.4 6.01-4.958.884-1.04 1.142-2.245-.319-2.45 1.805-1.796.148-5.206 1.646-6.528 1.026 1.418 1.84 3.267 2.17 4.807 3.071-1.785-.522-3.984-.41-5.907 1.155 1.148 4.363 3.558 2.196 5.33-1.13 1.687-2.475 3.605-2.34 5.715 1.522-1.403 2.689-3.78 4.6-5.058 1.805-1.988 4.359-3.015 6.836-3.883.911 1.858-4.01 1.574-4.892 3.341-2.27 1.77-4.235 3.958-5.545 6.51-.906-.043-2.216-.312-1.76 1.425 1.458 2.412 5.254 2.125 7.205 4.337 1.635 1.385 3.278 2.838 5.181 3.838zm-20.27-33.742c-2.844-1.723 3.55-1.558 1.177-.126-.402-.083-.792.316-1.177.126zm5.74 32.75c.7-1.628 2.393-2.903 3.693-3.383-1.413-1.666-3.856-3.63-2.32-6.025 1.11-3.805-1.716.885-2.435 1.973-1.373 2.327-3.044 4.775-4.094 7.11 1.496-.11 4.276-6.27 4.861-2.132.11.505-.457 2.477.295 2.457zm20.964-3.657c3.595-.579-2.133-1.115-3.28-1.364-2.697-.46-1.738 1.385.498 1.211.924.047 1.859.28 2.782.153zm-35.27-32.18c2.792-.457-1.857-2.094.236-3.664-1.902-1.895-5.989-.026-4.054 2.673.814 1.288 2.526 1.02 3.817.99zm11.792-1.456c1.943-.791-1.992-1.817-.331-3.37-2.553-3.217-4.593 2.622-1.331 3.266.54.131 1.108.261 1.662.104z" stroke-width=".127"/><g fill="#28de2c"><path d="m56.766 43.498c-2.909-1.87-5.234-4.624-8.578-5.784-1.626-.201-4.357-2.027-2.417-3.536 2.079.92 2.5-3.34 4.388-4.194 1.89-1.965 4.122-3.632 6.801-4.293 2.31-1.862-1.808-.826-2.632-.03-3.523 1.597-6.06 4.707-8.32 7.72-.367-2.676 2.245-4.897 3.133-7.248-.787-.914-2.34-4.572-3.34-3.248 1.206 1.427 3.013 4.61.42 5.12-.154-1.43-1.145-4.807-2.58-4.211.243 2.215-.571 4.694-.82 6.547 2.118.645-1.226 3.565-1.778 4.878-1.715 1.906-4.586 2.386-7.077 2.146-3.13.563-5.014-1.791-6.655-4.054-1.611-1.968-4.684-3.94-3.295-6.882 1.156-2.521-1.46-2.13-1.187.176-1.151 2.71 1.3 4.796 2.962 6.563 1.856 2.108 3.777 4.19 5.379 6.498-1.682-.76-2.255.918-2.982 1.647-1.062-1.43-3.509 2.229-2.574-.57 1.563-2.554.215-4.75-2.104-6.135-1.44-1.748-4.668-2.836-4.715-5.242.405-1.564 4.465-4.061 2.659-5.153-1.21 2.118-4.168 3.729-3.916 6.399-.533.933-5.592-2.507-4.364.157 2.618.4 4.967 1.885 7.085 3.402 2.155 1.556 3.89 4.295 1.324 6.372-.578.58-3.073 4.773-1.97 2.11.576-1.3 4.042-5.454.72-4.7-.71-1.186-1.7-2.166-3.177-1.82-3.624-.443-7.156-1.555-10.576-2.795-1.957-1.062-4.86-1.823-5.273-4.34.723-2.54 4.37-2.05 6.499-2.283 2.845.14 5.818.27 8.337 1.759 2.378.089 2.14-3.811 3.921-5.165 1.068-1.872 2.228-3.838 2.687-5.946-.13-1.508.386-3.162-.524-4.495-2.071-2.189 1.127-3.771 1.106-5.658-1.164-1.108-.278-3.407.476-1 1.084 2.455 4.11 1.963 6.253 1.694 1.468-1.165 1.346-3.794 3.873-3.212-.231-1.565 2.543-4.946 2.131-1.668-.234 2.787 3.023 4.31 5.372 3.49 1.965-.05 4.09 1.712 5.923 2.423 1.125 2.995-2.249 5.103-4.752 5.604-4.209.977-8.675 1.758-12.95.802-2.252-.887-4.924-2.192-5.133-4.662-2.86 2.214 2.06 4.25 3.83 5.048 4.526 1.737 9.492.746 14.09-.168 1.246.28 4.126-2.345 4.155-.883-1.68 1.856-4.375 2.261-6.657 3.02-2.583.539-5.245.203-7.846.144-.274 1.82 3.996.997 5.509 1.172 2.083.429 4.57-1.909 6.191-.17 2.013 2.435 5.006 3.718 7.099 6.05 2.308-.576 4.86-2.027 7.571-1.395 2.96-.363 5.885 2.315 2.71 4.514-3.013 3.552-8.149 4.192-11.31 7.542.876 1.502 4.994 1.33 4.074 3.528 1.993.268.86 2.504 2.87 3.155.725.407 1.339 2.45-.047 1.26zm-18.312-33.39c2.804-1.413-3.922-1.843-1.139.08.385.134.756-.081 1.139-.08z" stroke-width=".477906"/><path d="m42.828 42.524c-.102-1 .083-2.004.023-3.003-.107-.467-.668-.805-1.115-.554-.924.487-1.49 1.416-2.112 2.219-.381.47-.704 1.02-1.219 1.356-.632.225-.373-.616-.103-.862.926-1.154 1.631-2.46 2.306-3.77.97-1.746 2.187-3.338 3.26-5.021.276-.333.476-.862.893-.991.121.475-.127.97-.254 1.427-.333.876-.77 1.864-.388 2.798.578 1.357 1.82 2.257 2.62 3.464-.113.444-.882.223-1.236.47-.64.37-1.09.994-1.55 1.558-.346.394-.5.95-.917 1.275-.145-.047-.174-.24-.208-.366z" stroke-width=".392"/><path d="m61.744 39.114c-.861-.103-1.73-.24-2.543-.556-.148-.059-.542-.239-.295-.41.4-.187.852-.226 1.287-.234.654.037 1.3.155 1.947.246.87.144 1.743.263 2.613.396.241.057.51.084.703.253.036.26-.357.251-.538.288a16.94 16.94 0 0 1 -2.995.034c-.06-.005-.12-.01-.179-.017z" stroke-width=".172"/></g></g></svg>